<mxfile host="app.diagrams.net" modified="2023-09-18T00:03:11.686Z" agent="Mozilla/5.0 (Macintosh; Intel Mac OS X 10_15_7) AppleWebKit/537.36 (KHTML, like Gecko) Chrome/116.0.0.0 Safari/537.36" version="21.7.5" etag="sc5UrLykYplaB5KOlLd-" type="github">
  <diagram name="페이지-1" id="FkGm79yE9vUiz0jlm7Wn">
    <mxGraphModel>
      <root>
        <mxCell id="0" />
        <mxCell id="1" parent="0" />
      </root>
    </mxGraphModel>
  </diagram>
</mxfile>
